<svg width="87" height="94" viewBox="0 0 87 94" fill="none" xmlns="http://www.w3.org/2000/svg">
<path d="M19.2937 94C17.9548 94 16.3587 93.3543 14.2679 91.9696C12.8037 91.0011 11.0691 89.6379 9.24872 88.0237C6.3467 85.4552 2.89064 81.9612 1.91451 80.2322C0.799864 78.2592 0.140312 75.9992 0.0215926 73.6819C-0.110318 71.2282 0.36456 68.7674 1.38027 66.572C3.45126 62.0879 4.81654 56.6353 4.94845 52.3378C4.95504 50.9675 5.04078 18.173 4.94845 14.0189C4.84951 9.90078 7.00625 6.1844 9.06405 4.0751C12.7509 0.294153 17.6712 0.014349 17.8757 0H17.935H67.2036C70.5937 0 73.8848 1.52099 76.246 4.16837C76.7737 4.75668 78.1257 6.22745 79.4382 7.64082C80.8233 9.14028 82.2545 10.69 82.8745 11.3787C85.2093 13.9974 86.4955 17.5918 86.4097 21.2365C86.2382 28.741 83.8836 36.2813 80.1044 41.3967C79.6097 42.064 78.9963 42.8245 78.3302 43.5921C78.9502 44.2593 79.6427 44.9983 80.2693 45.6584C81.3707 46.8278 82.3271 47.8394 82.8283 48.4134C85.1368 51.0177 86.4097 54.6049 86.4097 58.5079C86.4097 65.1012 83.7847 70.8408 81.5818 74.4854C79.0359 78.704 75.6524 82.4419 72.5393 84.4866C69.5779 86.4238 66.0559 87.4067 62.0657 87.4067H34.7998C32.1154 87.4067 28.0921 89.7527 25.1505 91.4602C22.2947 93.1319 20.7315 94 19.2937 94Z" fill="white"/>
<path d="M83.7782 58.508C83.7782 68.8822 76.2527 78.7113 71.1807 82.0331C68.3974 83.8554 65.2447 84.5441 62.0723 84.5441H34.7998C29.3453 84.5441 21.4703 91.1375 19.3004 91.1375C15.8179 91.1375 5.47615 81.043 4.16364 78.7328C3.27325 77.1688 2.7522 75.368 2.65986 73.5241C2.55434 71.5727 2.93028 69.614 3.74153 67.8635C5.97741 63.0135 7.45481 57.0874 7.59331 52.3881C7.59991 51.1326 7.68565 18.1372 7.59331 13.9473C7.51417 10.4748 9.55878 7.51894 10.8779 6.16296C13.892 3.07076 18.001 2.86987 18.001 2.86987H67.2102C69.888 2.86987 72.4932 4.06801 74.3598 6.16296C75.4612 7.40414 79.8077 12.046 80.9883 13.3733C82.835 15.4467 83.8507 18.2807 83.7848 21.1648C83.6397 27.6936 81.6478 34.7461 78.0598 39.6032C77.2222 40.7368 75.9493 42.2219 74.6368 43.5779C75.5733 44.7401 79.7681 49.0807 80.9421 50.408C82.8416 52.5531 83.7782 55.5018 83.7782 58.508Z" fill="#212121"/>
<path d="M67.6586 50.9241C67.375 59.5837 62.0129 66.995 55.4437 66.995H27.9536C22.9938 67.203 17.3018 69.9222 12.9554 73.4735C12.4739 73.8681 11.9265 73.1363 12.2233 72.4906C14.8879 66.7152 16.9259 59.1389 17.0842 52.5311V33.1815C17.0842 32.7797 17.3282 32.4497 17.6316 32.4712C24.1282 32.8515 32.4715 39.4879 32.4715 48.2408V49.4891C32.4715 49.8837 32.709 50.1994 33.0058 50.1994H67.1244C67.4212 50.1994 67.6718 50.5295 67.6586 50.9241Z" fill="white"/>
<path d="M67.6521 13.6886C67.4608 22.4629 62.0591 30.0033 55.4306 30.0033H29.7938C23.1653 30.0033 17.7636 22.4629 17.5723 13.6886C17.5657 13.4231 17.7636 13.2007 18.0208 13.2007C19.9401 13.1935 65.9636 13.2007 67.2036 13.2007C67.4542 13.2007 67.6587 13.4159 67.6521 13.6886Z" fill="white"/>
</svg>
