<svg width="63" height="68" viewBox="0 0 63 68" fill="none" xmlns="http://www.w3.org/2000/svg">
<path d="M14.2397 67.5026C13.2782 67.5026 12.132 67.0389 10.6306 66.0445C9.57912 65.349 8.33347 64.3701 7.02624 63.2109C4.94226 61.3665 2.46042 58.8574 1.75944 57.6157C0.959005 56.1989 0.485373 54.576 0.400119 52.9119C0.305392 51.1499 0.646408 49.3827 1.3758 47.8062C2.86301 44.5861 3.84343 40.6705 3.93815 37.5844C3.94289 36.6004 4.00446 13.0502 3.93815 10.0672C3.86711 7.10987 5.41589 4.44109 6.89362 2.92638C9.54123 0.211235 13.0745 0.0103042 13.2214 0H13.264H48.6443C51.0788 0 53.4422 1.09224 55.1378 2.99336C55.5167 3.41583 56.4877 4.47201 57.4302 5.48697C58.4248 6.56375 59.4526 7.6766 59.8978 8.1712C61.5745 10.0517 62.4981 12.6329 62.4365 15.2502C62.3134 20.6392 60.6225 26.0541 57.9086 29.7275C57.5534 30.2067 57.1129 30.7528 56.6345 31.304C57.0797 31.7832 57.577 32.3139 58.027 32.7879C58.818 33.6276 59.5047 34.3541 59.8647 34.7663C61.5224 36.6365 62.4365 39.2125 62.4365 42.0152C62.4365 46.75 60.5515 50.8717 58.9695 53.4889C57.1413 56.5183 54.7116 59.2026 52.476 60.6709C50.3494 62.062 47.8202 62.7678 44.9547 62.7678H25.3748C23.4471 62.7678 20.5579 64.4526 18.4455 65.6787C16.3947 66.8792 15.2722 67.5026 14.2397 67.5026Z" fill="white"/>
<path d="M60.5468 42.0152C60.5468 49.4651 55.1426 56.5235 51.5004 58.9089C49.5016 60.2175 47.2377 60.7121 44.9595 60.7121H25.3748C21.4579 60.7121 15.8027 65.4469 14.2444 65.4469C11.7437 65.4469 4.31711 58.1979 3.37458 56.5389C2.73518 55.4158 2.36101 54.1226 2.2947 52.7985C2.21892 51.3971 2.48889 49.9906 3.07145 48.7335C4.67707 45.2507 5.73801 40.9951 5.83747 37.6205C5.8422 36.7189 5.90378 13.0244 5.83747 10.0156C5.78063 7.522 7.24889 5.39934 8.19616 4.4256C10.3607 2.20505 13.3114 2.06079 13.3114 2.06079H48.6491C50.5721 2.06079 52.4429 2.92119 53.7833 4.4256C54.5743 5.31691 57.6955 8.65031 58.5433 9.60344C59.8695 11.0924 60.5989 13.1275 60.5515 15.1986C60.4473 19.887 59.0169 24.9515 56.4404 28.4395C55.8389 29.2535 54.9247 30.32 53.9822 31.2937C54.6548 32.1284 57.6671 35.2454 58.5101 36.1985C59.8742 37.739 60.5468 39.8565 60.5468 42.0152Z" fill="#212121"/>
<path d="M48.9711 36.5691C48.7675 42.7877 44.9168 48.1098 40.1995 48.1098H20.4585C16.8968 48.2592 12.8093 50.2118 9.68807 52.7621C9.34232 53.0455 8.9492 52.52 9.16234 52.0563C11.0758 47.9089 12.5393 42.4682 12.653 37.7231V23.8279C12.653 23.5394 12.8282 23.3024 13.0461 23.3179C17.7114 23.5909 23.7028 28.3566 23.7028 34.6422V35.5386C23.7028 35.822 23.8734 36.0487 24.0865 36.0487H48.5875C48.8006 36.0487 48.9806 36.2857 48.9711 36.5691Z" fill="white"/>
<path d="M48.9664 9.83017C48.8291 16.1311 44.95 21.546 40.19 21.546H21.7799C17.0199 21.546 13.1409 16.1311 13.0035 9.83017C12.9988 9.63954 13.1409 9.47983 13.3256 9.47983C14.7038 9.47468 47.7539 9.47983 48.6444 9.47983C48.8243 9.47983 48.9712 9.63439 48.9664 9.83017Z" fill="white"/>
</svg>
