<svg width="40" height="40" viewBox="0 0 40 40" fill="none" xmlns="http://www.w3.org/2000/svg">
<path d="M8.93077 40C8.31102 40 7.5722 39.7252 6.60441 39.136C5.92665 38.7239 5.12372 38.1438 4.2811 37.4569C2.93779 36.3639 1.33804 34.8771 0.886197 34.1414C0.370245 33.3018 0.0649483 32.3401 0.00999489 31.354C-0.0510645 30.3099 0.168749 29.2627 0.638907 28.3285C1.59754 26.4204 2.2295 24.1001 2.29056 22.2714C2.29362 21.6883 2.3333 7.73317 2.29056 5.9655C2.24477 4.2131 3.24309 2.63166 4.19562 1.73409C5.90223 0.125172 8.17974 0.00610594 8.27438 0H8.30186H31.1075C32.6768 0 34.2002 0.647229 35.2932 1.77377C35.5374 2.02412 36.1633 2.64998 36.7708 3.25141C37.4119 3.88948 38.0744 4.54892 38.3614 4.84201C39.4421 5.95634 40.0375 7.48588 39.9978 9.03679C39.9184 12.2302 38.8285 15.4389 37.0792 17.6156C36.8502 17.8996 36.5663 18.2232 36.2579 18.5498C36.5449 18.8338 36.8654 19.1482 37.1555 19.4291C37.6653 19.9267 38.108 20.3572 38.34 20.6014C39.4086 21.7097 39.9978 23.2361 39.9978 24.897C39.9978 27.7026 38.7827 30.145 37.763 31.6959C36.5846 33.4911 35.0184 35.0817 33.5774 35.9518C32.2066 36.7761 30.5763 37.1943 28.7293 37.1943H16.1083C14.8657 37.1943 13.0034 38.1926 11.6418 38.9193C10.3199 39.6306 9.59632 40 8.93077 40Z" fill="white"/>
<path d="M38.7797 24.897C38.7797 29.3116 35.2962 33.4941 32.9485 34.9077C31.6602 35.6831 30.2008 35.9762 28.7324 35.9762H16.1083C13.5835 35.9762 9.93827 38.7819 8.93385 38.7819C7.32188 38.7819 2.53482 34.4863 1.92728 33.5033C1.51513 32.8377 1.27394 32.0714 1.2312 31.2868C1.18236 30.4564 1.35637 29.623 1.73189 28.878C2.76685 26.8142 3.45071 24.2925 3.51482 22.2928C3.51788 21.7585 3.55757 7.71791 3.51482 5.93498C3.47819 4.45734 4.42461 3.19952 5.0352 2.6225C6.43041 1.30667 8.33241 1.22119 8.33241 1.22119H31.1106C32.3501 1.22119 33.5561 1.73104 34.42 2.6225C34.9299 3.15067 36.9418 5.12594 37.4883 5.69074C38.3431 6.57305 38.8133 7.77897 38.7827 9.00626C38.7156 11.7845 37.7936 14.7855 36.1328 16.8524C35.745 17.3348 35.1558 17.9667 34.5483 18.5437C34.9818 19.0383 36.9235 20.8854 37.4669 21.4502C38.3462 22.363 38.7797 23.6178 38.7797 24.897Z" fill="#212121"/>
<path d="M31.3182 21.67C31.1869 25.3549 28.7049 28.5086 25.6641 28.5086H12.9393C10.6435 28.5971 8.00878 29.7542 5.99688 31.2654C5.77401 31.4334 5.52061 31.122 5.658 30.8472C6.8914 28.3895 7.83476 25.1656 7.90804 22.3538V14.12C7.90804 13.949 8.021 13.8086 8.16143 13.8177C11.1686 13.9795 15.0306 16.8035 15.0306 20.5281V21.0594C15.0306 21.2273 15.1405 21.3616 15.2779 21.3616H31.0709C31.2083 21.3616 31.3243 21.502 31.3182 21.67Z" fill="white"/>
<path d="M31.3152 5.82502C31.2267 9.5588 28.7263 12.7675 25.658 12.7675H13.7911C10.7229 12.7675 8.22252 9.5588 8.13399 5.82502C8.13093 5.71206 8.22252 5.61742 8.34159 5.61742C9.23 5.61436 30.5336 5.61742 31.1076 5.61742C31.2236 5.61742 31.3182 5.709 31.3152 5.82502Z" fill="white"/>
</svg>
