<svg width="66" height="60" viewBox="0 0 66 60" fill="none" xmlns="http://www.w3.org/2000/svg">
<circle cx="23" cy="23" r="23" fill="#80EBB6"/>
<rect x="27" y="21" width="39" height="39" rx="3" fill="white"/>
<path d="M23.9308 53C23.311 53 22.5722 52.7252 21.6044 52.136C20.9267 51.7239 20.1237 51.1438 19.2811 50.4569C17.9378 49.3639 16.338 47.8771 15.8862 47.1414C15.3702 46.3018 15.0649 45.3401 15.01 44.354C14.9489 43.3099 15.1687 42.2627 15.6389 41.3285C16.5975 39.4204 17.2295 37.1001 17.2906 35.2714C17.2936 34.6883 17.3333 20.7332 17.2906 18.9655C17.2448 17.2131 18.2431 15.6317 19.1956 14.7341C20.9022 13.1252 23.1797 13.0061 23.2744 13H23.3019H46.1075C47.6768 13 49.2002 13.6472 50.2932 14.7738C50.5374 15.0241 51.1633 15.65 51.7708 16.2514C52.4119 16.8895 53.0744 17.5489 53.3614 17.842C54.4422 18.9563 55.0375 20.4859 54.9978 22.0368C54.9184 25.2302 53.8285 28.4389 52.0792 30.6156C51.8502 30.8996 51.5662 31.2232 51.2579 31.5498C51.5449 31.8338 51.8654 32.1482 52.1555 32.4291C52.6653 32.9267 53.108 33.3572 53.34 33.6014C54.4086 34.7097 54.9978 36.2361 54.9978 37.897C54.9978 40.7026 53.7827 43.145 52.763 44.6959C51.5846 46.4911 50.0184 48.0817 48.5774 48.9518C47.2066 49.7761 45.5763 50.1943 43.7293 50.1943H31.1083C29.8657 50.1943 28.0034 51.1926 26.6418 51.9193C25.3199 52.6306 24.5963 53 23.9308 53Z" fill="white"/>
<path d="M53.7797 37.897C53.7797 42.3116 50.2962 46.4941 47.9485 47.9077C46.6602 48.6831 45.2008 48.9762 43.7324 48.9762H31.1083C28.5835 48.9762 24.9383 51.7819 23.9338 51.7819C22.3219 51.7819 17.5348 47.4863 16.9273 46.5033C16.5151 45.8377 16.2739 45.0714 16.2312 44.2868C16.1824 43.4564 16.3564 42.623 16.7319 41.878C17.7668 39.8142 18.4507 37.2925 18.5148 35.2928C18.5179 34.7585 18.5576 20.7179 18.5148 18.935C18.4782 17.4573 19.4246 16.1995 20.0352 15.6225C21.4304 14.3067 23.3324 14.2212 23.3324 14.2212H46.1106C47.3501 14.2212 48.5561 14.731 49.42 15.6225C49.9299 16.1507 51.9418 18.1259 52.4883 18.6907C53.3431 19.573 53.8133 20.779 53.7827 22.0063C53.7156 24.7845 52.7936 27.7855 51.1328 29.8524C50.745 30.3348 50.1558 30.9667 49.5483 31.5437C49.9818 32.0383 51.9235 33.8854 52.4669 34.4502C53.3462 35.363 53.7797 36.6178 53.7797 37.897Z" fill="#212121"/>
<path d="M46.3182 34.6699C46.1869 38.3549 43.7049 41.5086 40.6641 41.5086H27.9393C25.6435 41.5971 23.0088 42.7542 20.9969 44.2654C20.774 44.4333 20.5206 44.1219 20.658 43.8472C21.8914 41.3895 22.8348 38.1656 22.908 35.3538V27.1199C22.908 26.949 23.021 26.8085 23.1614 26.8177C26.1686 26.9795 30.0306 29.8035 30.0306 33.5281V34.0593C30.0306 34.2272 30.1405 34.3616 30.2779 34.3616H46.0709C46.2083 34.3616 46.3243 34.502 46.3182 34.6699Z" fill="white"/>
<path d="M46.3152 18.825C46.2266 22.5588 43.7262 25.7675 40.658 25.7675H28.7911C25.7229 25.7675 23.2225 22.5588 23.134 18.825C23.1309 18.7121 23.2225 18.6174 23.3416 18.6174C24.23 18.6144 45.5336 18.6174 46.1076 18.6174C46.2236 18.6174 46.3182 18.709 46.3152 18.825Z" fill="white"/>
</svg>
