<svg width="66" height="60" viewBox="0 0 66 60" fill="none" xmlns="http://www.w3.org/2000/svg">
<circle cx="23" cy="23" r="23" fill="white"/>
<rect x="27" y="21" width="39" height="39" rx="3" fill="#80EBB6"/>
<path d="M24.9308 52C24.311 52 23.5722 51.7252 22.6044 51.136C21.9267 50.7239 21.1237 50.1438 20.2811 49.4569C18.9378 48.3639 17.338 46.8771 16.8862 46.1414C16.3702 45.3018 16.0649 44.3401 16.01 43.354C15.9489 42.3099 16.1687 41.2627 16.6389 40.3285C17.5975 38.4204 18.2295 36.1001 18.2906 34.2714C18.2936 33.6883 18.3333 19.7332 18.2906 17.9655C18.2448 16.2131 19.2431 14.6317 20.1956 13.7341C21.9022 12.1252 24.1797 12.0061 24.2744 12H24.3019H47.1075C48.6768 12 50.2002 12.6472 51.2932 13.7738C51.5374 14.0241 52.1633 14.65 52.7708 15.2514C53.4119 15.8895 54.0744 16.5489 54.3614 16.842C55.4422 17.9563 56.0375 19.4859 55.9978 21.0368C55.9184 24.2302 54.8285 27.4389 53.0792 29.6156C52.8502 29.8996 52.5662 30.2232 52.2579 30.5498C52.5449 30.8338 52.8654 31.1482 53.1555 31.4291C53.6653 31.9267 54.108 32.3572 54.34 32.6014C55.4086 33.7097 55.9978 35.2361 55.9978 36.897C55.9978 39.7026 54.7827 42.145 53.763 43.6959C52.5846 45.4911 51.0184 47.0817 49.5774 47.9518C48.2066 48.7761 46.5763 49.1943 44.7293 49.1943H32.1083C30.8657 49.1943 29.0034 50.1926 27.6418 50.9193C26.3199 51.6306 25.5963 52 24.9308 52Z" fill="white"/>
<path d="M54.7797 36.897C54.7797 41.3116 51.2962 45.4941 48.9485 46.9077C47.6602 47.6831 46.2008 47.9762 44.7324 47.9762H32.1083C29.5835 47.9762 25.9383 50.7819 24.9338 50.7819C23.3219 50.7819 18.5348 46.4863 17.9273 45.5033C17.5151 44.8377 17.2739 44.0714 17.2312 43.2868C17.1824 42.4564 17.3564 41.623 17.7319 40.878C18.7668 38.8142 19.4507 36.2925 19.5148 34.2928C19.5179 33.7585 19.5576 19.7179 19.5148 17.935C19.4782 16.4573 20.4246 15.1995 21.0352 14.6225C22.4304 13.3067 24.3324 13.2212 24.3324 13.2212H47.1106C48.3501 13.2212 49.5561 13.731 50.42 14.6225C50.9299 15.1507 52.9418 17.1259 53.4883 17.6907C54.3431 18.573 54.8133 19.779 54.7827 21.0063C54.7156 23.7845 53.7936 26.7855 52.1328 28.8524C51.745 29.3348 51.1558 29.9667 50.5483 30.5437C50.9818 31.0383 52.9235 32.8854 53.4669 33.4502C54.3462 34.363 54.7797 35.6178 54.7797 36.897Z" fill="#212121"/>
<path d="M47.3182 33.6699C47.1869 37.3549 44.7049 40.5086 41.6641 40.5086H28.9393C26.6435 40.5971 24.0088 41.7542 21.9969 43.2654C21.774 43.4333 21.5206 43.1219 21.658 42.8472C22.8914 40.3895 23.8348 37.1656 23.908 34.3538V26.1199C23.908 25.949 24.021 25.8085 24.1614 25.8177C27.1686 25.9795 31.0306 28.8035 31.0306 32.5281V33.0593C31.0306 33.2272 31.1405 33.3616 31.2779 33.3616H47.0709C47.2083 33.3616 47.3243 33.502 47.3182 33.6699Z" fill="white"/>
<path d="M47.3152 17.825C47.2267 21.5588 44.7263 24.7675 41.658 24.7675H29.7911C26.7229 24.7675 24.2225 21.5588 24.134 17.825C24.1309 17.7121 24.2225 17.6174 24.3416 17.6174C25.23 17.6144 46.5336 17.6174 47.1076 17.6174C47.2236 17.6174 47.3182 17.709 47.3152 17.825Z" fill="white"/>
</svg>
