<?xml version="1.0" standalone="no"?>
<!DOCTYPE svg PUBLIC "-//W3C//DTD SVG 20010904//EN"
 "http://www.w3.org/TR/2001/REC-SVG-20010904/DTD/svg10.dtd">
<svg version="1.0" xmlns="http://www.w3.org/2000/svg"
 width="1024.000000pt" height="1024.000000pt" viewBox="0 0 1024.000000 1024.000000"
 preserveAspectRatio="xMidYMid meet">
<metadata>
Created by potrace 1.11, written by Peter Selinger 2001-2013
</metadata>
<g transform="translate(0.000000,1024.000000) scale(0.100000,-0.100000)"
fill="#000000" stroke="none">
<path d="M2646 7948 c-31 -51 20 -395 90 -606 87 -260 210 -465 388 -650 145
-151 294 -250 465 -312 190 -69 77 -65 1726 -65 1600 0 1520 -2 1690 52 439
141 804 581 939 1133 46 190 69 433 44 458 -9 9 -616 12 -2670 12 l-2658 0
-14 -22z"/>
<path d="M2605 6060 c-20 -22 -20 -40 -26 -1109 -6 -1177 -3 -1117 -65 -1456
-66 -370 -206 -819 -361 -1159 -102 -226 -106 -235 -92 -268 14 -34 53 -47 85
-27 12 8 87 58 166 111 360 243 733 401 1153 490 l110 23 1625 5 c1827 7 1672
0 1882 84 467 188 822 709 903 1324 19 144 19 202 -1 230 l-15 22 -1842 0
c-1593 0 -1845 2 -1863 14 -19 14 -22 29 -28 161 -11 245 -54 423 -147 606
-254 507 -837 908 -1399 965 -59 6 -67 4 -85 -16z"/>
</g>
</svg>
