<svg xmlns="http://www.w3.org/2000/svg" width="75.908" height="75.908" viewBox="0 0 75.908 75.908">
  <path id="Path_1564" data-name="Path 1564" d="M58.521,49.589v-7.16H16.281v7.16a11.444,11.444,0,0,0-7.48,3.36,11.6,11.6,0,0,0,7.84,19.8,17.733,17.733,0,0,0,13.12,13.62v7.96h-7.34v12.1h29.96v-12.1h-7.36v-7.96a17.757,17.757,0,0,0,13.14-13.62,11.594,11.594,0,0,0,.36-23.16Zm-42.24,17.38a5.808,5.808,0,0,1-5.82-5.8,5.8,5.8,0,0,1,5.82-5.82Zm26.48.84h-9.48a10.082,10.082,0,0,0-5.16,2.06c-.18.12-.36-.1-.26-.3a16.138,16.138,0,0,0,1.68-6.34v-6.12c0-.14.08-.24.18-.24,2.24.12,5.12,2.22,5.12,5v.4a.2.2,0,0,0,.18.22h11.76a.2.2,0,0,1,.18.24C46.861,65.469,45.021,67.809,42.761,67.809Zm0-11.72h-8.84c-2.28,0-4.14-2.38-4.22-5.16a.172.172,0,0,1,.16-.16h16.96a.155.155,0,0,1,.14.16C46.9,53.709,45.041,56.089,42.761,56.089Zm19.14,9.18a5.724,5.724,0,0,1-3.38,1.66V55.409a5.8,5.8,0,0,1,3.38,9.86Z" transform="matrix(0.978, 0.208, -0.208, 0.978, 16.845, -42.625)" fill="#0898fa"/>
</svg>
