<svg xmlns="http://www.w3.org/2000/svg" width="72.743" height="71.847" viewBox="0 0 72.743 71.847">
  <g id="Group_623" data-name="Group 623" transform="matrix(0.921, 0.391, -0.391, 0.921, -460.582, -91.629)">
    <path id="Path_990" data-name="Path 990" d="M501.228-80.651H505.8V-72.6h-4.576v20.5H490.2v-8.053h3.207v-33.5H490.2v-8.053h11.029Z" transform="translate(7.52 3.516)" fill="#80ebb6"/>
    <rect id="Rectangle_420" data-name="Rectangle 420" width="7.719" height="23.173" transform="translate(482.789 -105.39)" fill="#80ebb6"/>
    <rect id="Rectangle_421" data-name="Rectangle 421" width="7.719" height="23.173" transform="translate(482.789 -64.563)" fill="#80ebb6"/>
    <circle id="Ellipse_142" data-name="Ellipse 142" cx="8.749" cy="8.749" r="8.749" transform="translate(524.026 -89.192)" fill="#80ebb6"/>
    <path id="Rectangle_422" data-name="Rectangle 422" d="M3.4,0H24.628a3.4,3.4,0,0,1,3.4,3.4V12a0,0,0,0,1,0,0H0a0,0,0,0,1,0,0V3.4A3.4,3.4,0,0,1,3.4,0Z" transform="translate(518.76 -66.51)" fill="#80ebb6"/>
  </g>
</svg>
