<svg xmlns="http://www.w3.org/2000/svg" viewBox="0 0 415.01 414.98"><defs><style>.cls-1{fill:#1B1C23 ;}</style></defs><title>chalk-logo-white</title><g id="Layer_2" data-name="Layer 2"><g id="Layer_1-2" data-name="Layer 1"><path class="cls-1" d="M152,240.77C152,180.62,89.64,135,41.06,132.41c-2.24-.12-4.09,2.15-4.09,4.89v133C35.76,315.74,20.57,367.78.63,407.48c-2.22,4.43,1.88,9.45,5.49,6.73,32.48-24.43,75-43.09,112.11-44.53H323.69c49.11,0,89.18-50.94,91.32-110.44.1-2.75-1.75-5-4-5H156c-2.21,0-4-2.19-4-4.89Z"/><path class="cls-1" d="M415,3.35c-1.45,60.29-41.79,112.13-91.36,112.13H132c-49.58,0-89.92-51.84-91.36-112.13A3.27,3.27,0,0,1,43.84,0H411.62A3.31,3.31,0,0,1,415,3.28Z"/></g></g></svg>