<svg id="Layer_1" data-name="Layer 1" xmlns="http://www.w3.org/2000/svg" viewBox="0 0 525.31 101.61"><defs><style>.cls-1{fill:#80ebb6;}</style></defs><path class="cls-1" d="M48,42.45a44.25,44.25,0,0,0-16.47,2.78,26.74,26.74,0,0,0-11.21,7.64,20.94,20.94,0,0,0-5,9.93,122.14,122.14,0,0,0-.79,15.88v28.58a63,63,0,0,0,2.68,21A20.41,20.41,0,0,0,28,139.37a47.1,47.1,0,0,0,20.84,4,39.71,39.71,0,0,0,20.34-4.76A22.51,22.51,0,0,0,80,128.69a65.22,65.22,0,0,0,2.48-21.43v-4.47H53.68V115a30.45,30.45,0,0,1-1,9.92c-.6,1.39-2,2.08-4.17,2.09s-3.67-.7-4.27-2.09a26.76,26.76,0,0,1-1-9.33V70.74a28,28,0,0,1,1-9.93c.6-1.49,2.09-2.18,4.47-2.18s3.47.59,4.07,1.79a29,29,0,0,1,.89,9.22V86.91H82.46V77.68a56.37,56.37,0,0,0-2.68-19.85A21.16,21.16,0,0,0,69,46.72a44.9,44.9,0,0,0-21-4.27" transform="translate(-14.47 -42.41)"/><path class="cls-1" d="M342.07,60.22a16.46,16.46,0,0,0-4.66-8.54,22.09,22.09,0,0,0-10.62-5.56A152.88,152.88,0,0,0,299,44.44H277.76v97.25h35.83a85.7,85.7,0,0,0,15.18-1,21.36,21.36,0,0,0,8.44-3.57,12.63,12.63,0,0,0,4.86-6.75,74.46,74.46,0,0,0,1.29-17.57V78.68A114.05,114.05,0,0,0,342.07,60.22Zm-27,50.71a26.82,26.82,0,0,1-1.49,11.91c-.89,1.49-3.47,2.28-7.54,2.28v-64a17.35,17.35,0,0,1,6.25,1.19,4,4,0,0,1,2.08,2.78,39.59,39.59,0,0,1,0,8.43Z" transform="translate(-14.47 -42.41)"/><path class="cls-1" d="M349,44.44V102a195.15,195.15,0,0,0,.69,21.63,19.19,19.19,0,0,0,4.37,9.93,26.05,26.05,0,0,0,11.11,7.54,49,49,0,0,0,17.29,2.9,42.76,42.76,0,0,0,15.38-2.29,23.91,23.91,0,0,0,9.93-7.14,18.75,18.75,0,0,0,5.06-9.33,102.7,102.7,0,0,0,.89-15.58V44.44H385.54v71.65a32.18,32.18,0,0,1-.79,9.23,3.18,3.18,0,0,1-3.48,2,3.26,3.26,0,0,1-3.17-1.78,27.86,27.86,0,0,1-.7-8.14v-73Z" transform="translate(-14.47 -42.41)"/><path class="cls-1" d="M416.3,44.44V64.29h17.17v77.9h29V63.89H478l14.29,42.57v35.23h26.6V106.46l20.94-62H513c-3.77,15.08-6.35,27.88-7.94,38.3-.59-6.55-2.87-19.35-6.94-38.3Z" transform="translate(-14.47 -42.41)"/><path class="cls-1" d="M135.45,44.44H95.76L81.37,141.69h28.68l1.59-17.46h9.92L123,141.69h28.38Zm-24.11,62.62c.69-8.64,2.38-22.23,5.26-40.79q2.09,24.32,4.17,40.79Z" transform="translate(-14.47 -42.41)"/><polygon class="cls-1" points="139.24 2.13 139.24 99.38 185.78 99.38 185.78 79.93 168.12 79.93 168.12 2.13 139.24 2.13"/><polygon class="cls-1" points="189.56 2.13 189.56 99.38 234.22 99.38 234.22 79.93 217.34 79.93 217.34 2.13 189.56 2.13"/><path class="cls-1" d="M256.73,73.81a9.3,9.3,0,0,0-1.49-3.87,6.76,6.76,0,0,0-3.18-2.58,12.1,12.1,0,0,0-4.56-.89,12.67,12.67,0,0,0-4.67.89A7.54,7.54,0,0,0,239.66,70a10.52,10.52,0,0,0-1.39,3.87V93.76a9,9,0,0,0,1.49,3.87,7.51,7.51,0,0,0,3.17,2.68,12.11,12.11,0,0,0,4.57.89,12.57,12.57,0,0,0,4.66-.89,8.7,8.7,0,0,0,3.18-2.78,8.05,8.05,0,0,0,1.39-3.87V81.16A60.08,60.08,0,0,0,256.73,73.81Zm-7.94,17.47a12.54,12.54,0,0,1,0,3.77.91.91,0,0,1-1,.8h0a1.08,1.08,0,0,1-1.09-.59,22.49,22.49,0,0,1,0-3.67V75.8a8,8,0,0,1,0-3.08,1.1,1.1,0,0,1,1-.59,1,1,0,0,1,1,.69,8,8,0,0,1,0,3Z" transform="translate(-14.47 -42.41)"/><polygon class="cls-1" points="244.63 24.75 244.63 58.1 252.66 58.1 252.66 44.11 257.63 44.11 257.63 37.75 252.66 37.75 252.66 31.4 258.32 31.4 258.32 24.75 244.63 24.75"/></svg>