<svg xmlns="http://www.w3.org/2000/svg" width="64" height="64" viewBox="0 0 64 64">
  <g id="Group_622" data-name="Group 622" transform="translate(-1035.51 494.148)">
    <path id="Path_1384" data-name="Path 1384" d="M1060.394-475.706c.08,0,.12.06.12.14-.06,1.721-1.221,3.2-2.642,3.2h-5.943a6.205,6.205,0,0,0-3.242,1.281c-.1.08-.22-.06-.16-.2a9.628,9.628,0,0,0,1.041-3.962v-3.842a.134.134,0,0,1,.12-.14,3.465,3.465,0,0,1,3.222,3.122v.26c0,.08.04.14.12.14Z" transform="translate(12.999 14.918)" fill="#ff6f59"/>
    <path id="Path_1385" data-name="Path 1385" d="M1059.826-481.148a.1.1,0,0,1,.1.1c-.04,1.741-1.2,3.242-2.642,3.242h-5.543c-1.441,0-2.6-1.5-2.642-3.242a.1.1,0,0,1,.1-.1Z" transform="translate(13.587 12.999)" fill="#ff6f59"/>
    <path id="Path_1386" data-name="Path 1386" d="M1067.51-494.148a32,32,0,0,0-32,32,31.991,31.991,0,0,0,32,32,31.991,31.991,0,0,0,32-32A32,32,0,0,0,1067.51-494.148Zm10.86,43.18a1.237,1.237,0,0,1-.92.9l-26.56,6.04a1.237,1.237,0,0,1-1.5-1.48l6.04-26.56a1.264,1.264,0,0,1,.9-.94l27.78-7.24a1.241,1.241,0,0,1,1.52,1.52Z" transform="translate(0 0)" fill="#ff6f59"/>
    <path id="Path_1387" data-name="Path 1387" d="M1060.394-475.706c.08,0,.12.06.12.14-.06,1.721-1.221,3.2-2.642,3.2h-5.943a6.205,6.205,0,0,0-3.242,1.281c-.1.08-.22-.06-.16-.2a9.628,9.628,0,0,0,1.041-3.962v-3.842a.134.134,0,0,1,.12-.14,3.465,3.465,0,0,1,3.222,3.122v.26c0,.08.04.14.12.14Z" transform="translate(12.999 14.918)" fill="#ff6f59"/>
    <path id="Path_1388" data-name="Path 1388" d="M1049.1-481.048a.1.1,0,0,1,.1-.1h10.625a.1.1,0,0,1,.1.1c-.04,1.741-1.2,3.242-2.642,3.242h-5.543C1050.3-477.806,1049.14-479.307,1049.1-481.048Z" transform="translate(13.587 12.999)" fill="#ff6f59"/>
    <g id="Group_464" data-name="Group 464" transform="translate(1061.511 -468.151)">
      <g id="Group_462" data-name="Group 462" transform="translate(0 3.842)">
        <path id="Path_1389" data-name="Path 1389" d="M1060.515-475.566c-.06,1.721-1.221,3.2-2.642,3.2h-5.943a6.205,6.205,0,0,0-3.242,1.281c-.1.08-.22-.06-.16-.2a9.628,9.628,0,0,0,1.041-3.962v-3.842a.134.134,0,0,1,.12-.14,3.465,3.465,0,0,1,3.222,3.122v.26c0,.08.04.14.12.14h7.364C1060.474-475.706,1060.515-475.646,1060.515-475.566Z" transform="translate(-1048.512 479.228)" fill="#ff6f59"/>
      </g>
      <g id="Group_463" data-name="Group 463" transform="translate(1.177)">
        <path id="Path_1390" data-name="Path 1390" d="M1059.926-481.048c-.04,1.741-1.2,3.242-2.642,3.242h-5.543c-1.441,0-2.6-1.5-2.642-3.242a.1.1,0,0,1,.1-.1h10.625A.1.1,0,0,1,1059.926-481.048Z" transform="translate(-1049.1 481.148)" fill="#ff6f59"/>
      </g>
    </g>
  </g>
</svg>
