<svg id="Layer_1" data-name="Layer 1" xmlns="http://www.w3.org/2000/svg" viewBox="0 0 418.95 116.5"><defs><style>.cls-1{fill:#80ebb6;}</style></defs><path class="cls-1" d="M34.05,139.76s0-33.09-.15-43.46q-.13-13.36-.35-31.75c-.15-12.26-.37-26.57-.66-41.29q5.8.15,13.23,0c4.27,0,9.31.36,15.09.26s12.35.16,19.62,0q-.14,2.76-.14,6.54c-.1,2.23-.14,4.95-.14,8.15V49.48c-1.34-.1-3-.14-5-.14q-2.62,0-6.69.07t-9.6.22V55c0,1.75,0,3.88-.07,6.4s0,3.14.07,6.36h6.35c3.34,0,4.45-.1,10.07-.29v9.37c0,2.23-.41,8.81-.41,12a29.69,29.69,0,0,0,.15,3.39c-1.26-.1-2.82-.15-4.65-.15H67.16c-2.42,0-4.12,0-7.52.15.1,4.36.18,11.9.23,16.79s.16,19.89.35,25.32Z" transform="translate(-32.89 -23.26)"/><path class="cls-1" d="M110.2,109.55a2.11,2.11,0,0,0,1.67-.94,9.41,9.41,0,0,0,1.21-4,84,84,0,0,0,.68-9.11q.19-6,.19-16.35,0-9.78-.19-15.67a82.21,82.21,0,0,0-.68-9,9.41,9.41,0,0,0-1.27-4.09,2.36,2.36,0,0,0-1.87-1,2.54,2.54,0,0,0-2.15,1.14,11,11,0,0,0-1.2,4.48c-.27,2.24-.46,5.36-.54,9.39s-.13,9.24-.13,15.67.08,11.73.26,15.62a89,89,0,0,0,.74,8.9,9,9,0,0,0,1.27,4,2.55,2.55,0,0,0,2,.94m-.26,18.35a29.44,29.44,0,0,1-14.07-3.08,24.06,24.06,0,0,1-9.38-9.1,44.9,44.9,0,0,1-5.29-14.88,111,111,0,0,1-1.7-20.5A140.89,140.89,0,0,1,80.84,60,50.41,50.41,0,0,1,85.6,44.23a26.08,26.08,0,0,1,9.25-10.32q5.84-3.69,14.94-3.68T125,33.64a24.22,24.22,0,0,1,9.37,9.85,46.85,46.85,0,0,1,4.69,15.68,155.17,155.17,0,0,1,1.27,21,118.37,118.37,0,0,1-2,22.23,42.94,42.94,0,0,1-5.56,14.74,21.7,21.7,0,0,1-9.38,8.18,33,33,0,0,1-13.49,2.54" transform="translate(-32.89 -23.26)"/><path class="cls-1" d="M168.42,78.87a8,8,0,0,0,6.35-3c1.53-1.92,2.29-5.15,2.3-9.68s-.72-8-2.17-10.53A6.67,6.67,0,0,0,168,52.2q0,5,.07,9.75c0,3.18.11,6,.2,8.5q.15,4.38.15,8.42m11,50.66L177,120.05c-.75-3.06-1.68-5.56-2.8-9.88s-2.38-9.17-3.9-14.57a.74.74,0,0,1-.56.14H168.4l.55,30H153.51q-4.77,0-10.32.13.13-11.12.28-25.79.14-12.54.2-30.11c.05-11.71.51-24.12.51-38.91,4.18-.73,19.21-.31,22.47-.31,12.92,0,18.91.79,24.9,6.67S203,51.35,203,63c0,6.13-.65,11.25-2.73,15.34a27.54,27.54,0,0,1-8.59,10q.84,2.79,4.19,12.9c2.23,6.74,5.48,14.81,9.76,26.61-2,.09-4.23.24-6.83.42-2.24.19-5,.39-8.23.62s-7,.44-11.15.63" transform="translate(-32.89 -23.26)"/><path class="cls-1" d="M258.13,124.26q.15-10.59.14-24.76,0-12.15-.14-29.26c-.09-11.4.18-22.23,0-36.71,2.07-.1,18.86-3.49,22.33-3.68,1.22,3.72,3.08,8.41,4.76,13.28q2.11,6.28,5.21,15.3t7.18,20.47q-.42-8.73-1.27-22.11c-.56-8.91-1.36-15.62-2.38-28.11,1.78.09,19.39.13,23,0,.1,7.83-.34,81.19.14,97.21-1.51.19-15.67,1.75-19.61,2q-2.13-6-4.77-13.74c-1.58-4.39-3.47-7.94-5.63-13.92l-7.15-19.85q.29,7.44.71,18.17T282,124.7q-2.81,0-6.48-.15c-2.06-.09-4.58-.16-7.53-.21s-6.23-.08-9.79-.08" transform="translate(-32.89 -23.26)"/><path class="cls-1" d="M322.88,129.47V100.1q0-13.66-.15-32c-.1-12.22-.24-20.23-.43-34.48h14.9c3.25,0,7.06,0,11.41-.15,0,9.6.05,14.71.15,25.76q.14,14.1.22,32.28t.36,38Z" transform="translate(-32.89 -23.26)"/><path class="cls-1" d="M351,62.23c.08-1.36.13-3.21.13-5.56,0-1.94,0-4.51-.06-7.71s-.12-7.14-.21-11.91c0,0,44.67-1.58,53.55-1.78-.09,2-.19,5.56-.27,8q-.13,3.34-.2,8.07c0,3.14,0,4.36.06,8.42h-3.78c-1.27,0-2.78,0-4.55-.07s-3.78-.07-6.05-.07V73.34c0,5,0,13.1.07,19.35s.11,6.35.2,13.9.19,16,.27,25.3c-1.72-.1-3.75-.14-6.11-.14q-3.12,0-7.68.07c-3,0-6.59.12-10.67.22q.14-9,.14-20.8c0-6.69,0-7.94-.07-17.32s-.11-20-.2-31.84Z" transform="translate(-32.89 -23.26)"/><path class="cls-1" d="M203.41,55.23c.1-1.36.15-3.18.15-5.56,0-1.94,0-4.51-.07-7.7s-.12-7.15-.22-11.91c0,0,43.1,3,53,4.4-.09,2-.18,6.77-.23,9.92s0,11.17.07,15.25H252c-1.36,0-1,0-2.86-.08s-4-.07-6.47-.07V73.17c0,5,0,6.27.07,12.52s.12,7.15.22,14.7.19,16,.28,25.31c-1.84-.11-4-.16-6.54-.16-2.23,0-5,0-8.21.08l-11.41.22q.13-9,.14-20.79c0-6.69,0-8.74-.07-18.12s-.13-20-.22-31.85Z" transform="translate(-32.89 -23.26)"/><path class="cls-1" d="M407.66,133.51c-.1-8.44,1-19.9.93-30.36q-.13-13.5-.34-31.85c-.13-12.21-.29-27.7-.46-42.43,2.5,0,35.63-4,43.78-4.05v21c0,3.18.09,3.41.27,7.19q-3.76.15-7.39.15-3.09.14-6.51.14c-2.29,0-4.32.05-6.11.14-.09,2-.12,3.71-.07,5.31s.07,6.24.07,7.5v4c.52,0,2.09,0,4.7.07s6.58,0,12-.22V84.75c0,3,0,3,.14,6.61H444c-1.53,0-3.27,0-5.24-.08s-4.07-.07-6.31-.07V94.7c0,2.33.13,8.64.39,12.52,1.44.1,3.14.19,5.12.29l5.9.36c2.33.14,4.93.27,7.79.37-.09,1.64-.13,3.68-.13,6.1-.09,2-.14,4.56-.14,7.56v14.63c-4-.1-38-2.93-43.66-3" transform="translate(-32.89 -23.26)"/></svg>