<svg xmlns="http://www.w3.org/2000/svg" xmlns:xlink="http://www.w3.org/1999/xlink" width="409.839" height="409.485" viewBox="0 0 409.839 409.485">
  <defs>
    <linearGradient id="linear-gradient" y1="0.5" x2="1" y2="0.5" gradientUnits="objectBoundingBox">
      <stop offset="0" stop-color="#80ebb6"/>
      <stop offset="0.311" stop-color="#7fffe4"/>
      <stop offset="0.498" stop-color="#c5f5e7"/>
    </linearGradient>
    <linearGradient id="linear-gradient-2" y1="0.5" x2="1" y2="0.5" gradientUnits="objectBoundingBox">
      <stop offset="0" stop-color="#80ebb6"/>
      <stop offset="1" stop-color="#7fffe4"/>
    </linearGradient>
    <linearGradient id="linear-gradient-3" x1="0.5" y1="0.01" x2="0.5" y2="0.964" gradientUnits="objectBoundingBox">
      <stop offset="0" stop-color="#414042"/>
      <stop offset="0.063" stop-color="#454547"/>
      <stop offset="0.141" stop-color="#545356"/>
      <stop offset="0.226" stop-color="#6b6c6e"/>
      <stop offset="0.315" stop-color="#8c8e91"/>
      <stop offset="0.331" stop-color="#939598"/>
      <stop offset="0.601" stop-color="#605f61"/>
      <stop offset="0.868" stop-color="#343032"/>
      <stop offset="1" stop-color="#231f20"/>
    </linearGradient>
    <linearGradient id="linear-gradient-4" x1="0.5" x2="0.5" y2="1" gradientUnits="objectBoundingBox">
      <stop offset="0" stop-color="#f1f2f2"/>
      <stop offset="0.402" stop-color="#eff1f1"/>
      <stop offset="0.547" stop-color="#e8eef1"/>
      <stop offset="0.651" stop-color="#dce9ef"/>
      <stop offset="0.734" stop-color="#cbe2ed"/>
      <stop offset="0.806" stop-color="#b5d9eb"/>
      <stop offset="0.869" stop-color="#9acee8"/>
      <stop offset="0.926" stop-color="#7ac1e5"/>
      <stop offset="0.977" stop-color="#55b2e1"/>
      <stop offset="1" stop-color="#43abdf"/>
    </linearGradient>
    <linearGradient id="linear-gradient-23" x1="0.5" x2="0.5" y2="1" gradientUnits="objectBoundingBox">
      <stop offset="0" stop-color="#414042"/>
      <stop offset="0.559" stop-color="#3f3e40"/>
      <stop offset="0.76" stop-color="#393739"/>
      <stop offset="0.903" stop-color="#2e2c2d"/>
      <stop offset="1" stop-color="#231f20"/>
    </linearGradient>
  </defs>
  <g id="Group_365" data-name="Group 365" transform="translate(1930.72 -1062.838)">
    <path id="Path_1077" data-name="Path 1077" d="M-1725.8,1472.323a29.586,29.586,0,0,1-14.33-3.711l-76.185-42.312a224.523,224.523,0,0,1-73.176-65.225,164.575,164.575,0,0,0-15.329,6.33l-25.9,12.406V1150.743h18.767l4.449-55.181a23.64,23.64,0,0,1,18.335-21.077l1.372-.315L-1730.315,1063c1.495-.106,3.014-.16,4.514-.16s3.02.054,4.515.16l157.482,11.172,1.372.315a23.64,23.64,0,0,1,18.335,21.077l4.449,55.181h18.767v229.068l-25.9-12.406a164.585,164.585,0,0,0-15.329-6.33,224.522,224.522,0,0,1-73.177,65.225l-76.185,42.312A29.581,29.581,0,0,1-1725.8,1472.323Z" transform="translate(0 0)" fill="#fefefe"/>
    <path id="Path_1078" data-name="Path 1078" d="M-1706.83,1480.963a19.211,19.211,0,0,1-9.306-2.41l-76.185-42.307a213.586,213.586,0,0,1-74.129-68.484,191.744,191.744,0,0,0-23.871,9.31l-11.1,5.316V1180.032h17.969l5.21-64.607a13.355,13.355,0,0,1,10.362-11.905l.588-.135,156.68-11.114c1.253-.089,2.525-.134,3.781-.134s2.529.045,3.782.134l156.679,11.114.588.135a13.355,13.355,0,0,1,10.362,11.905l5.21,64.607h17.97v202.356l-11.1-5.316a191.725,191.725,0,0,0-23.871-9.31,213.59,213.59,0,0,1-74.129,68.484l-76.185,42.307A19.208,19.208,0,0,1-1706.83,1480.963Z" transform="translate(-18.97 -18.97)" fill="#212121"/>
    <path id="Path_1079" data-name="Path 1079" d="M-1595.593,1443.706l-76.185,42.3a11.416,11.416,0,0,1-11.076,0l-76.185-42.3a204.863,204.863,0,0,1-94.173-111.893,48.041,48.041,0,0,1-2.445-19.829l14.65-181.662a5.66,5.66,0,0,1,4.382-5.027l156.078-11.07a45.744,45.744,0,0,1,6.465,0l156.078,11.07a5.66,5.66,0,0,1,4.381,5.027l14.65,181.662a48.037,48.037,0,0,1-2.444,19.829A204.862,204.862,0,0,1-1595.593,1443.706Z" transform="translate(-48.484 -33.197)" fill="url(#linear-gradient)"/>
    <path id="Path_1080" data-name="Path 1080" d="M-1173.7,1331.811a204.865,204.865,0,0,1-94.172,111.894l-76.187,42.3a11.407,11.407,0,0,1-5.6,1.432V1114.109q1.651,0,3.3.116l156.079,11.07a5.656,5.656,0,0,1,4.383,5.026l14.65,181.66A48.035,48.035,0,0,1-1173.7,1331.811Z" transform="translate(-376.202 -33.195)" fill="url(#linear-gradient-2)"/>
    <path id="Path_1081" data-name="Path 1081" d="M-1577.1,1458.762l-70.46,39.116a10.557,10.557,0,0,1-10.244,0l-70.459-39.116a189.44,189.44,0,0,1-87.1-103.464,44.417,44.417,0,0,1-2.261-18.335l13.549-167.977a5.233,5.233,0,0,1,4.052-4.649l144.349-10.236a42.2,42.2,0,0,1,5.979,0l144.349,10.236a5.233,5.233,0,0,1,4.052,4.649l13.549,167.977A44.412,44.412,0,0,1-1490,1355.3,189.44,189.44,0,0,1-1577.1,1458.762Z" transform="translate(-73.12 -59.019)" fill="#212121"/>
    <path id="Path_1082" data-name="Path 1082" d="M-1557.33,1474.855l-64.34,35.711a9.643,9.643,0,0,1-9.354,0l-64.34-35.711A172.955,172.955,0,0,1-1774.9,1380.4a40.543,40.543,0,0,1-2.065-16.739l12.372-153.351a4.779,4.779,0,0,1,3.7-4.243l131.813-9.344a38.512,38.512,0,0,1,5.459,0l131.813,9.344a4.778,4.778,0,0,1,3.7,4.243l12.372,153.351a40.545,40.545,0,0,1-2.064,16.739A172.955,172.955,0,0,1-1557.33,1474.855Z" transform="translate(-99.453 -86.62)" fill="url(#linear-gradient-3)"/>
    <path id="Path_1083" data-name="Path 1083" d="M-1505.76,1364v182.765c-38.416-18.441-107.722-30.751-186.843-30.751s-148.427,12.31-186.843,30.751V1364Z" transform="translate(-33.197 -195.406)" fill="#212121"/>
    <g id="Group_360" data-name="Group 360" transform="translate(-1890.396 1190.289)">
      <path id="Path_1084" data-name="Path 1084" d="M-1799.416,1496.377q.043-8.671.087-17.342,8.112-1.761,16.265-3.325c7.57-1.475,11.777-4.876,11.859-12.395q.15-13.622.3-27.242c.083-7.511-4.079-10.374-11.714-10.4q-16.862.007-33.724.016.007,37.94.013,75.878Q-1807.906,1498.828-1799.416,1496.377Zm.272-54.5q5.473-.359,10.951-.691-.079,10.083-.156,20.167-5.457.761-10.9,1.583Q-1799.2,1452.4-1799.143,1441.873Z" transform="translate(1816.344 -1425.614)" fill="url(#linear-gradient-4)"/>
      <path id="Path_1085" data-name="Path 1085" d="M-1636.923,1483.809q11.289-2.025,22.639-3.561c7.679-1.044,11.6-3.906,11.669-9.826q.216-18.177.432-36.354c.07-6.042-4.095-8.441-11.393-8.454l-22.567.007c-7.634-.025-11.534,3.15-11.615,9.6q-.261,20.628-.524,41.256C-1648.37,1483.391-1644.141,1485.132-1636.923,1483.809Zm6.391-45.02q5.5-.215,11-.4-.2,14.99-.4,29.981-5.515.624-11.017,1.337Q-1630.741,1454.248-1630.533,1438.789Z" transform="translate(1707.535 -1425.577)" fill="url(#linear-gradient-4)"/>
      <path id="Path_1086" data-name="Path 1086" d="M-1463.823,1476.434q14.123-.874,28.27-1,0-5.71.01-11.419-11.18.075-22.354.516.083-13.658.168-27.316,11.1-.164,22.209-.219,0-5.71.01-11.419l-27.937,0c-7.634-.008-11.513,2.255-11.572,8.219q-.17,17.663-.34,35.326C-1475.417,1475.1-1471.544,1476.929-1463.823,1476.434Z" transform="translate(1595.575 -1425.552)" fill="url(#linear-gradient-4)"/>
      <path id="Path_1087" data-name="Path 1087" d="M-1289.4,1448.181l-1.095.025q5.407-11.13,10.766-22.65l-17.2,0q-4.565,10.519-9.172,20.806l-.506-.01q-.069-10.4-.137-20.795l-17.282,0q.063,24.958.126,49.917,8.748.148,17.49.584-.06-9.1-.121-18.2,4.944.158,9.886.375.079,9.208.16,18.416,8.734.6,17.449,1.484-.125-10.792-.251-21.584C-1279.337,1451.792-1284.429,1448.345-1289.4,1448.181Z" transform="translate(1497.591 -1425.538)" fill="url(#linear-gradient-4)"/>
      <path id="Path_1088" data-name="Path 1088" d="M-1118.69,1486.238q-.091-6.952-.181-13.9-10.8-1.7-21.641-3.061-.064-4.579-.128-9.159,10.839,1.072,21.642,2.418-.09-6.913-.18-13.827-10.809-.843-21.643-1.514-.061-4.331-.121-8.662,10.828.4,21.643.907-.091-6.952-.181-13.9l-38.926.005q.358,27.1.716,54.2Q-1138.105,1482.262-1118.69,1486.238Z" transform="translate(1390.365 -1425.525)" fill="url(#linear-gradient-4)"/>
      <path id="Path_1089" data-name="Path 1089" d="M-998.538,1440.82q.228,25.764.457,51.53,8.537,2.208,17.017,4.7-.126-27.58-.252-55.158,7.141.473,14.274.991l0-17.379-45.973.009q.083,7.256.167,14.513Q-1005.692,1440.4-998.538,1440.82Z" transform="translate(1296.234 -1425.506)" fill="url(#linear-gradient-4)"/>
      <path id="Path_1090" data-name="Path 1090" d="M-1793.767,1649.647q-11.327,3.17-22.576,6.744,0,5.1,0,10.206,3.509-1.274,7.028-2.513,0,17.234.006,34.468,4.24-1.113,8.489-2.172,0-17.3-.007-34.6,3.526-.933,7.062-1.826Q-1793.766,1654.8-1793.767,1649.647Z" transform="translate(1816.344 -1570.625)" fill="url(#linear-gradient-4)"/>
      <path id="Path_1091" data-name="Path 1091" d="M-1717.025,1633.628q-5.6,1.211-11.175,2.528c-3.774.894-5.677,3.742-5.677,8.54q0,15.42.007,30.839c0,5.139,2.114,6.629,5.681,5.847q5.579-1.221,11.175-2.347c3.785-.758,5.7-3.225,5.7-8.294q0-15.544-.008-31.088C-1711.32,1634.473-1713.405,1632.845-1717.025,1633.628Zm-8.3,36.764q0-12.24-.006-24.479,2.72-.617,5.442-1.211,0,12.263.006,24.527Q-1722.608,1669.8-1725.328,1670.392Z" transform="translate(1762.951 -1560.133)" fill="url(#linear-gradient-4)"/>
      <path id="Path_1092" data-name="Path 1092" d="M-1634.422,1616.523q.005,17.648.01,35.3-2.74.435-5.479.9,0-17.621-.01-35.244-4.3.765-8.6,1.6.006,19.09.01,38.181c0,5.423,2.045,7.046,5.847,6.4q5.472-.93,10.956-1.76c3.808-.576,5.9-2.873,5.9-8.33q-.006-19.208-.01-38.414Q-1630.112,1615.8-1634.422,1616.523Z" transform="translate(1707.676 -1548.284)" fill="url(#linear-gradient-4)"/>
      <path id="Path_1093" data-name="Path 1093" d="M-1543.452,1631.335v-.115c1.933-1,3.112-2.785,3.111-6.25q0-5.92,0-11.839c0-5.484-2.107-7.366-5.933-6.95q-8.157.889-16.3,2.019.006,22.978.012,45.957,4.321-.557,8.647-1.052,0-7.75,0-15.5,2.459-.289,4.916-.556,0,7.757,0,15.513,4.331-.459,8.664-.854,0-7.624,0-15.246C-1540.338,1633-1541.56,1631.493-1543.452,1631.335Zm-10.467-4.217q0-4.754,0-9.507,2.457-.3,4.916-.573,0,4.758,0,9.516Q-1551.462,1626.825-1553.919,1627.118Z" transform="translate(1652.04 -1542.447)" fill="url(#linear-gradient-4)"/>
      <path id="Path_1094" data-name="Path 1094" d="M-1461.828,1598.668q0,10.1,0,20.21-4.261-9.88-8.517-19.68-3.792.266-7.581.585,0,23.1.011,46.191,4.336-.34,8.676-.615,0-10.589,0-21.18,4.427,10.3,8.855,20.686,3.625-.175,7.252-.3,0-23.149-.009-46.3Q-1457.484,1598.431-1461.828,1598.668Z" transform="translate(1597.234 -1537.358)" fill="url(#linear-gradient-4)"/>
      <path id="Path_1095" data-name="Path 1095" d="M-1380.032,1597.188c-3.839.053-5.948,2.2-5.946,7.7q0,19.361.006,38.721,4.345-.1,8.69-.13,0-6.233,0-12.464,2.784-.022,5.569-.016,0,6.233,0,12.465,4.347.01,8.691.084,0-23.159-.006-46.318Q-1371.53,1597.076-1380.032,1597.188Zm2.746,23.336q0-6.376,0-12.755,2.783-.022,5.569-.015,0,6.377,0,12.754Q-1374.5,1620.5-1377.286,1620.524Z" transform="translate(1537.705 -1536.631)" fill="url(#linear-gradient-4)"/>
      <path id="Path_1096" data-name="Path 1096" d="M-1273.521,1599.4q-4.693,11.42-9.392,22.945-4.761-12.1-9.529-24.131-3.394-.153-6.789-.264,0,23.153.006,46.3,4.28.131,8.56.323,0-10.339,0-20.678,3.585,8.536,7.167,17.109l1.138.067q3.6-8.091,7.2-16.124,0,10.266,0,20.532,4.275.306,8.546.675,0-23.081,0-46.161Q-1270.069,1599.68-1273.521,1599.4Z" transform="translate(1481.542 -1537.156)" fill="url(#linear-gradient-4)"/>
      <path id="Path_1097" data-name="Path 1097" d="M-1176.467,1642.4q0-3.716,0-7.432,5.419.635,10.829,1.373,0-5.232,0-10.464-5.41-.749-10.829-1.4,0-3.516,0-7.03,5.421.654,10.829,1.411,0-5.26,0-10.521-9.731-1.385-19.486-2.428,0,23.053,0,46.107,9.756.97,19.486,2.257,0-5.26,0-10.52Q-1171.047,1643.034-1176.467,1642.4Z" transform="translate(1407.664 -1542.313)" fill="url(#linear-gradient-4)"/>
      <path id="Path_1098" data-name="Path 1098" d="M-1093.547,1618.543q0,9.974,0,19.947-4.217-10.725-8.444-21.437-3.766-.636-7.535-1.221,0,22.93,0,45.86,4.315.623,8.622,1.307,0-10.481,0-20.961,4.391,11.2,8.777,22.418,3.592.623,7.176,1.286,0-22.775,0-45.551Q-1089.244,1619.334-1093.547,1618.543Z" transform="translate(1358.717 -1548.732)" fill="url(#linear-gradient-4)"/>
      <path id="Path_1099" data-name="Path 1099" d="M-998.524,1637.238q-11.34-2.837-22.748-5.244,0,5.206,0,10.411,3.56.738,7.112,1.518,0,17.48,0,34.959,4.279.887,8.552,1.831,0-17.425,0-34.85,3.545.83,7.084,1.7Q-998.524,1642.4-998.524,1637.238Z" transform="translate(1301.578 -1559.196)" fill="url(#linear-gradient-4)"/>
      <path id="Path_1100" data-name="Path 1100" d="M-924.489,1674.693q-2.673-.739-5.351-1.458,0-3.419,0-6.839,5.586,1.616,11.15,3.328,0-5.1,0-10.207-6.918-2.136-13.87-4.125c-3.754-1.016-5.777.488-5.777,5.834q0,6.527,0,13.054c0,3.943,1.077,7.293,5.737,8.493q2.722.706,5.439,1.432,0,3.584,0,7.167-5.58-1.475-11.175-2.856,0,5.149,0,10.3,6.961,1.688,13.892,3.518c3.7.977,5.752-.354,5.752-5.484q0-6.471,0-12.94C-918.695,1678.557-920.542,1675.789-924.489,1674.693Z" transform="translate(1247.883 -1574.153)" fill="url(#linear-gradient-4)"/>
    </g>
    <g id="Group_361" data-name="Group 361" transform="translate(-1820.602 1126.719)">
      <path id="Path_1101" data-name="Path 1101" d="M-1591.591,1244.937c3.625.376,4.613,1.083,5.272,4.1a45.007,45.007,0,0,1,.8,8.9c0,.894-.094,1.177-.847,1.223-2.165.094-4.943.094-6.308.094-.989,0-5.084,0-6.214-.094-.753-.047-.847-.188-.895-.753s-.047-3.766-.141-4.519c-.047-.47-.189-.659-.753-.754a8,8,0,0,0-1.177-.094,7.98,7.98,0,0,0-1.177.094c-.471.094-.707.236-.753.754-.141,1.883-.141,4.613-.141,7.391,0,2.5,0,5.508.141,7.391.047.517.283.659.753.753a7.944,7.944,0,0,0,1.177.094,7.958,7.958,0,0,0,1.177-.094c.564-.094.706-.282.753-.753.094-.753.141-4.472.188-5.037s.141-.707.895-.754c1.13-.094,5.178-.094,6.167-.094,1.365,0,4.142,0,6.308.094.754.047.895.33.895,1.224a60.636,60.636,0,0,1-.848,9.415c-.659,3.013-1.648,3.719-5.272,4.1-2.5.282-7.391.471-10.262.471-3.06,0-7.579-.189-10.262-.471-3.625-.377-4.567-1.036-5.273-4.1a62.325,62.325,0,0,1-.989-12.24,62.327,62.327,0,0,1,.989-12.239c.706-3.2,1.836-3.719,5.273-4.1,2.495-.282,7.391-.471,10.262-.471S-1594.086,1244.654-1591.591,1244.937Z" transform="translate(1618.377 -1244.466)" fill="#fefefe"/>
      <path id="Path_1102" data-name="Path 1102" d="M-1481.923,1245.588c.941-.094,3.295-.188,5.7-.188,2.354,0,4.707.094,5.648.189.989.094,1.46.518,1.507,1.695.141,3.813.141,9.085.141,14.593,0,5.6,0,10.781-.141,14.593-.047,1.177-.517,1.6-1.507,1.695-.941.094-3.295.188-5.648.188-2.4,0-4.755-.094-5.7-.188-.989-.094-1.413-.518-1.413-1.695v-10.121h-4.143v10.121c0,1.177-.423,1.6-1.412,1.695-.941.094-3.295.188-5.7.188-2.354,0-4.708-.094-5.649-.188-.989-.094-1.459-.518-1.507-1.695-.141-3.813-.141-8.991-.141-14.593,0-5.508,0-10.78.141-14.593.047-1.177.518-1.6,1.507-1.7.942-.094,3.3-.188,5.649-.188,2.4,0,4.754.094,5.7.189.989.094,1.412.518,1.412,1.695v9.65h4.143v-9.65C-1483.335,1246.107-1482.912,1245.683-1481.923,1245.588Z" transform="translate(1542.953 -1245.071)" fill="#fefefe"/>
      <path id="Path_1103" data-name="Path 1103" d="M-1352.671,1276.713c0,.847-.424,1.318-1.366,1.412s-3.577.188-5.743.188-4.284-.047-5.226-.141c-1.553-.141-1.789-.376-2.071-2.213l-.424-2.73h-4.989l-.424,2.73c-.283,1.836-.518,2.071-2.071,2.213-.941.094-3.06.141-5.225.141s-4.8-.094-5.744-.188-1.365-.565-1.365-1.412a15.677,15.677,0,0,1,.518-3.108l6.214-26.691c.235-1.083.847-1.46,1.977-1.507s5.79-.141,8.615-.141,7.485.094,8.615.141,1.742.423,1.977,1.507l6.214,26.691A15.677,15.677,0,0,1-1352.671,1276.713Zm-19.019-11.251h3.389l-1.6-10.828h-.188Z" transform="translate(1468.779 -1244.984)" fill="#fefefe"/>
      <path id="Path_1104" data-name="Path 1104" d="M-1240.768,1268.843c.047.941.047,2.354.047,3.86s0,2.871-.047,3.813c-.047,1.178-.659,1.554-1.648,1.695-1.036.142-10.277.142-13.573.142s-8.1,0-10.31-.188c-.988-.094-1.459-.518-1.506-1.695-.142-3.813-.142-9.085-.142-14.593s0-10.78.142-14.593c.047-1.177.518-1.6,1.507-1.7.941-.094,3.436-.188,5.79-.188,2.4,0,4.9.094,5.837.189.988.094,1.412.518,1.412,1.695v19.489c0,.659.141.753.565.753h10.748C-1241.1,1267.525-1240.816,1267.855-1240.768,1268.843Z" transform="translate(1391.492 -1245.071)" fill="#fefefe"/>
      <path id="Path_1105" data-name="Path 1105" d="M-1132.5,1277.081a.927.927,0,0,1-.235.707,1.955,1.955,0,0,1-1.318.423c-1.318.094-3.443.142-5.279.142s-4.331,0-5.791-.142c-1.789-.188-2.354-.565-2.966-2.306l-4.142-11.816v12.381c0,1.177-.424,1.6-1.413,1.695-.941.094-3.295.188-5.7.188-2.354,0-4.708-.094-5.649-.188-.989-.094-1.459-.518-1.506-1.695-.141-3.813-.141-8.991-.141-14.593,0-5.508,0-10.78.141-14.593.047-1.177.518-1.6,1.506-1.7.942-.094,3.3-.188,5.649-.188,2.4,0,4.755.094,5.7.189.989.094,1.413.518,1.413,1.695v12.381l4.142-11.816c.612-1.741,1.177-2.118,2.966-2.307,1.459-.141,3.954-.141,5.791-.141s3.961.047,5.279.141a1.957,1.957,0,0,1,1.318.424.926.926,0,0,1,.235.706,5.04,5.04,0,0,1-.518,1.883l-5.7,13.322,5.7,13.322A5.039,5.039,0,0,1-1132.5,1277.081Z" transform="translate(1325.899 -1245.071)" fill="#fefefe"/>
    </g>
    <path id="Path_1106" data-name="Path 1106" d="M-1675.118,1756.336c-115.36,0-182.938,24.688-176.957,22.28,39.773-16.007,88.346-26.412,176.957-26.412,93.218,0,137.184,10.4,176.956,26.412C-1492.181,1781.024-1556.5,1756.336-1675.118,1756.336Z" transform="translate(-50.681 -446.898)" fill="url(#linear-gradient-2)"/>
    <path id="Path_1107" data-name="Path 1107" d="M-1815.522,1389.357c27.153-.759,54.3-1.155,81.457-1.424s54.3-.411,81.457-.408,54.3.136,81.457.4,54.305.667,81.457,1.43c-27.152.763-54.3,1.162-81.457,1.43s-54.3.411-81.457.4-54.3-.14-81.457-.408S-1788.369,1390.115-1815.522,1389.357Z" transform="translate(-74.584 -210.471)" fill="url(#linear-gradient-2)"/>
    <path id="Path_1108" data-name="Path 1108" d="M-1586.735,1795.26c-48.327,0-93,4.594-129.2,12.369a173.489,173.489,0,0,0,60.178,55.633l64.341,35.813a9.627,9.627,0,0,0,9.353,0l64.341-35.813a173.517,173.517,0,0,0,60.178-55.633C-1493.74,1799.854-1538.407,1795.26-1586.735,1795.26Zm57.846,60.847-3.728,2.075a9.629,9.629,0,0,1-14.328-8.695q.03-.79.03-1.587a41.109,41.109,0,0,0-40.956-41.212,41.214,41.214,0,0,0-41.475,41.211c0,.071,0,.141,0,.21a9.635,9.635,0,0,1-14.31,8.512l-.927-.516c-20.5-11.409-37.719-24.109-50.439-43.271,30.341-6.518,67.781-8.3,108.286-8.3s77.945,1.784,108.286,8.3C-1491.17,1832-1508.4,1844.7-1528.889,1856.107Z" transform="translate(-139.064 -475.105)" fill="url(#linear-gradient-23)"/>
    <g id="Group_364" data-name="Group 364" transform="translate(-1749.551 1354.839)">
      <g id="Group_362" data-name="Group 362" transform="translate(0 14.268)">
        <path id="Path_1109" data-name="Path 1109" d="M-1400.468,1945.277c0-6.481-6.72-11.393-11.954-11.675a.479.479,0,0,0-.44.527v14.334a37.352,37.352,0,0,1-3.915,14.777c-.239.477.2,1.018.591.725,3.5-2.632,8.084-4.643,12.079-4.8h22.138c5.291,0,9.609-5.489,9.839-11.9a.486.486,0,0,0-.431-.539h-27.477a.486.486,0,0,1-.431-.527Z" transform="translate(1416.845 -1933.602)" fill="#fefefe"/>
      </g>
      <g id="Group_363" data-name="Group 363" transform="translate(4.379 0)">
        <path id="Path_1110" data-name="Path 1110" d="M-1364.094,1893.494c-.155,6.5-4.5,12.081-9.843,12.081h-20.644c-5.342,0-9.688-5.585-9.844-12.081a.352.352,0,0,1,.36-.36c1.544-.006,38.611,0,39.611,0A.356.356,0,0,1-1364.094,1893.494Z" transform="translate(1404.425 -1893.13)" fill="#fefefe"/>
      </g>
    </g>
  </g>
</svg>
