<svg id="Layer_1" data-name="Layer 1" xmlns="http://www.w3.org/2000/svg" viewBox="0 0 523.48 149.68"><defs><style>.cls-1{fill:#80ebb6;}</style></defs><path class="cls-1" d="M86.53,121.15,74.67,58H60L48.82,118,44,98.8c5-2.29,7.77-7.13,7.77-17.14V77.57C51.71,61,44.66,58,32,58H15.4v70.45H28V100.66h3.41l7,27.79H59.75l2.35-12.78H72.43l2.37,12.78h24V58H86.53ZM39.24,82c0,6.3-.65,8.21-6.85,8.21H28V69h4.27c6.3,0,6.92,2.59,6.92,8.32Zm24,23.47,2.58-16,1.66-11,1.54,11,2.36,16Z" transform="translate(-15.4 -18.37)"/><polygon class="cls-1" points="111.07 74.39 101.41 39.63 85.87 39.63 85.87 110.04 98.04 110.04 98.04 67.86 110.75 110.04 123.34 110.04 123.34 39.63 111.07 39.63 111.07 74.39"/><path class="cls-1" d="M391.68,87c-7.2-6-9.87-8.21-9.87-12.38,0-3.35,1.33-5.89,6.11-5.89,4.43,0,5.76,2.07,6.09,8l13.09-1.28c-1.34-12.72-5.55-18.74-19.52-18.74-11.55,0-18.85,5.44-18.85,18.39,0,9.84,5.88,15.16,14.41,22.1,8.21,6.93,11.55,9.38,11.55,14.35,0,3.93-1.11,6.71-6.43,6.71-5.55,0-6.87-1.39-7.2-11.55l-13.33,1.73c.44,13,4,21.75,20.07,21.75,14.75,0,20.07-6.93,20.07-18.63C407.87,100.21,401.14,95,391.68,87Z" transform="translate(-15.4 -18.37)"/><rect class="cls-1" x="394.69" y="38.34" width="13.27" height="72.99"/><rect class="cls-1" x="336.84" width="6.63" height="149.68"/><polygon class="cls-1" points="410.82 111.33 444.48 111.33 444.48 99.32 424.33 99.32 424.33 77.28 441.05 77.28 441.05 65.86 424.33 65.86 424.33 50.47 444.48 50.47 444.48 38.34 410.82 38.34 410.82 111.33"/><polygon class="cls-1" points="523.48 50.47 523.48 38.34 489.81 38.34 489.81 111.33 523.48 111.33 523.48 99.32 503.32 99.32 503.32 77.28 520.04 77.28 520.04 65.86 503.32 65.86 503.32 50.47 523.48 50.47"/><path class="cls-1" d="M481.72,68.68c5.81,0,6.61,1.73,6.93,10.36l13.66-1.49c-.91-12.09-3.85-20.84-20.26-20.84-13.77,0-20.49,6.22-20.49,21.07v30.5c0,15.09,6.37,21.42,18.1,21.42,5,0,8.65-1.27,11.38-3.8l.77,3.45h10.25V88.94H482.63v11.17h7.18v2.07c-.12,13-.57,15.89-7.18,15.89-6.26,0-7.51-2.87-7.51-9.23V77.65C475.12,71.91,476.49,68.68,481.72,68.68Z" transform="translate(-15.4 -18.37)"/><path class="cls-1" d="M266,96.93a87.11,87.11,0,0,1-7.52-6.59l5-32.34H251.31l-4,28.4-1.62,13.36L243.85,86.4,239.66,58h-12.2l-4.57,28.53-2,13.24L219.5,86.53,215.79,58H203.41l.46,3.32c-3.12-2.46-7.63-3.93-14.08-3.93-7.59,0-12.48,2.14-15.54,5.56-3.37-4-9.11-5-16.89-5h-17V128.4H157.8c7.63,0,13.31-.83,16.72-4.79,3.14,3.4,8,5.39,15.27,5.39,15.52,0,20.28-8.69,20.28-21.09v-2l3.14,22.49h13.17L233,86.79l6.42,41.66H262a14,14,0,0,1-8.46-6.66l2.24-14.39,8.07-1c.34,10.07,1.66,11.45,7.21,11.45,5.32,0,6.43-2.75,6.43-6.64C277.5,106.21,274.14,103.82,266,96.93ZM153.3,68.46h4.29c6.49,0,7.15,2.25,7.15,8.1v1c0,6.3-.66,8.32-7,8.32H153.3Zm12,41.16c0,5.85-.77,8.33-7.26,8.33H153.3V96.35h4.84c6.38,0,7.15,1.81,7.15,8.22Zm31.61-1.13c0,6.77-2.31,9.14-7.1,9.14-5,0-6.87-2.37-6.87-9.24V77.92c0-6.09,1.77-8.8,6.87-8.8s7.1,2.6,7.1,8.68Z" transform="translate(-15.4 -18.37)"/><path class="cls-1" d="M289.92,75.4l-13.08,1.26c-.33-5.84-1.67-7.91-6.11-7.91-4.76,0-6.09,2.52-6.09,5.85,0,4.12,2.66,6.29,9.86,12.25,9.43,7.9,16.17,13.08,16.17,24.28,0,8.8-3.08,14.87-11.08,17.28h12.56V58H279.24C286.32,60.29,288.93,66,289.92,75.4Z" transform="translate(-15.4 -18.37)"/><polygon class="cls-1" points="317.45 39.63 305.11 39.63 311.53 57.06 317.45 39.63"/><polygon class="cls-1" points="303.28 110.04 317.96 110.04 310.3 89.59 303.28 110.04"/><polygon class="cls-1" points="291.61 39.63 290.05 39.63 290.05 110.04 290.48 110.04 304 72.86 291.61 39.63"/></svg>